<svg width="150" height="139" viewBox="0 0 150 139" fill="none" xmlns="http://www.w3.org/2000/svg">
<path d="M148.227 54.0766C147.37 50.4245 144.296 47.7041 140.569 47.2942L130.172 46.1576C129.389 46.0644 128.644 45.8409 127.973 45.4496C125.439 43.9776 124.414 40.8659 125.588 38.1828L129.799 28.5682C131.309 25.1025 130.47 21.0592 127.675 18.5065C123.8 14.9477 119.533 11.7801 114.93 9.05969C110.272 6.45109 105.353 4.30832 100.341 2.72453C96.7261 1.58793 92.7946 2.87359 90.5587 5.92937L84.3353 14.37C83.2546 15.8234 81.5404 16.6991 79.7144 16.6991C79.4721 16.6991 79.2113 16.6991 78.9318 16.6432C80.3293 9.95406 78.9318 2.31461 75.2425 0.619023C75.2239 0.609707 75.2006 0.605049 75.1773 0.600391C75.154 0.595732 75.1307 0.591074 75.1121 0.581758C75.1121 0.525859 75.0003 0.339531 74.1245 0.115937C73.0811 -0.144922 46.9952 0.115937 46.9952 0.115937H45.1878C36.1136 0.0414062 35.4801 0.0414068 22.4744 19.6804C21.0544 22.0086 19.7243 24.1455 18.4296 26.2254C14.067 33.2339 10.1076 39.5949 4.47509 50.4432C-2.30725 66.8773 -0.984322 71.6287 5.77939 86.684C9.82271 95.6836 12.8412 101.627 14.63 104.981C15.0994 105.865 15.6125 106.811 16.1563 107.8C17.2277 102.576 19.0806 96.6607 21.6213 90.7752C27.1278 78.0191 28.8745 74.9719 42.961 51.2335L42.9878 51.1884L43.0159 51.144C44.2623 49.1725 45.6302 47.0218 47.001 44.8666C49.6904 40.6383 52.3911 36.3924 54.2071 33.4467L54.2603 33.4795C54.8828 32.4879 55.4554 31.5681 55.9575 30.7483C60.2431 23.7982 63.4666 18.8978 66.3547 15.0036L69.1496 18.8046C69.5595 19.3636 70.0253 19.8854 70.6402 20.4816L70.957 20.7797C71.4973 21.2642 72.0749 21.7114 72.6525 22.084C72.6953 22.1097 72.7419 22.1353 72.7853 22.1591C72.8365 22.1873 72.8831 22.2129 72.9134 22.2331C73.4538 22.5685 74.05 22.8666 74.6835 23.1275L75.0189 23.2579C75.6152 23.4815 76.2487 23.6678 76.8449 23.8169C76.9476 23.8426 77.0293 23.8688 77.1096 23.8946C77.4958 24.0187 77.8532 24.1336 80.3852 24.1336C83.4442 24.1336 88.0432 21.9722 90.4096 18.786L96.633 10.3454C96.987 9.8609 97.6205 9.65594 98.1795 9.84226C102.707 11.277 107.142 13.1962 111.278 15.5066C115.359 17.9289 119.197 20.7797 122.7 24.0032C123.147 24.4131 123.278 25.0466 123.036 25.587L118.825 35.2015C116.123 41.369 118.471 48.5426 124.284 51.9151C125.868 52.8282 127.601 53.3871 129.408 53.5921L139.805 54.7287C140.401 54.8032 140.886 55.2318 141.016 55.8094C143.178 65.0513 143.196 74.8335 141.109 84.1126L141.054 84.0754C140.923 84.653 140.439 85.0816 139.842 85.1561L129.371 86.3299C125.234 86.7958 121.508 89.218 119.421 92.8328C117.334 96.4476 117.092 100.882 118.769 104.702L122.998 114.354C123.241 114.894 123.11 115.546 122.663 115.937C115.694 122.384 107.198 127.248 98.1236 130.005C97.5646 130.173 96.9497 129.968 96.5957 129.502L90.3723 121.062C88.0991 117.987 84.5962 116.049 80.8137 115.751L77.5902 115.9L77.1058 116.012C76.3977 116.161 75.7456 116.347 75.0003 116.627C74.3668 116.869 73.7332 117.186 73.0625 117.577L72.7643 117.764C72.1495 118.155 71.5718 118.602 71.0315 119.086L70.7147 119.385C70.0998 119.981 69.6154 120.521 69.1868 121.099L66.895 124.229C57.5925 111.875 47.3355 92.1052 38.1464 74.3935L38.0807 74.2668C33.648 82.0583 31.8056 85.9883 28.4641 93.729C25.8635 99.7534 24.0775 105.734 23.1859 110.71C22.7399 113.199 22.5296 115.371 22.5327 117.13C22.5341 118.001 22.5882 118.708 22.6689 119.267C26.1065 125.187 29.0331 130.08 29.0331 130.08C34.2131 137.253 36.0018 138.67 44.8897 138.819H73.0997C74.6276 138.819 75.1493 138.558 75.4102 138.371H75.3729C75.6711 138.241 75.9506 138.092 76.1741 137.868C79.025 135.502 80.087 129.092 79.0622 123.242C79.3045 123.223 79.5467 123.204 79.733 123.167C81.5404 123.167 83.2546 124.043 84.3167 125.496L90.54 133.937C92.2356 136.247 94.9001 137.552 97.6764 137.552C98.5335 137.552 99.3906 137.421 100.248 137.16C110.403 134.067 119.887 128.626 127.694 121.416C130.452 118.863 131.29 114.82 129.781 111.372L125.551 101.721C124.824 100.062 124.936 98.1245 125.831 96.5594C126.744 94.9942 128.346 93.9321 130.153 93.7458L140.625 92.5719C144.37 92.1434 147.445 89.4044 148.264 85.7337C150.612 75.3739 150.575 64.4364 148.171 54.0952L148.227 54.0766Z" fill="black"/>
<path fill-rule="evenodd" clip-rule="evenodd" d="M91.8628 48.9339C80.2918 42.2634 65.4601 46.2322 58.7709 57.8032C55.5288 63.4116 54.6717 69.9331 56.3486 76.1751C58.0256 82.4171 62.0316 87.6529 67.6401 90.8764C71.3667 93.0378 75.5218 94.1371 79.7142 94.1371C81.8197 94.1371 83.9252 93.8576 86.0121 93.2987C92.2541 91.6217 97.4899 87.6156 100.713 82.0072C107.384 70.4362 103.415 55.6045 91.8441 48.9153L91.8628 48.9339ZM94.2664 78.2992C92.0305 82.1749 88.4157 84.9512 84.0929 86.1064C79.7701 87.2616 75.2423 86.6654 71.3667 84.4294C67.4911 82.1935 64.7148 78.5787 63.5595 74.2559C62.4043 69.9331 63.0006 65.4053 65.2365 61.5297C68.3482 56.1635 73.9939 53.1449 79.7887 53.1449C82.6395 53.1449 85.509 53.8716 88.1362 55.3809C96.1483 60.0018 98.8873 70.2871 94.2664 78.2806V78.2992Z" fill="black"/>
</svg>
