<svg xmlns="http://www.w3.org/2000/svg" viewBox="0 0 2048 2048">
  <path d="M2048 1024q-125 215-247 427t-248 428l-18 32H512l-18-32q-125-215-247-428T0 1024q123-224 256-443t256-444h1023q61 113 126 223t130 220 131 221 126 223zm-502-77l-75-703-685 253q2 7 2 13t0 14l732 435q11-7 26-12zm-767 511l703-410q-2-10-2-16 0-11 3-22L760 581q-13 11-31 18l19 840q19 7 31 19zm-111-7q7-6 17-9l-19-845q-7-2-12-6t-11-9l-521 441 546 428zm740-1251H583l108 229h4q2 0 5-1 13 0 25 4t24 11l659-243zm-879 33L119 943l494-418q0-20 4-36t18-31L529 233zm-414 864l415 718 125-234q-11-11-17-27t-6-33v-9q0-4 2-9l-519-406zm469 751h831l-637-260q-16 14-31 18t-36 4l-127 238zm888-45l69-687q-14-4-27-14l-707 412v18l665 271zm65-21l420-726h-304q-5 19-18 33t-30 23l-68 670zm109-790h311l-420-725 73 688q24 14 36 37z" />
</svg>