<svg width="48" height="48" viewBox="0 0 48 48" fill="none" xmlns="http://www.w3.org/2000/svg">
<path d="M43.7725 19.4911C43.5425 18.5111 42.7225 17.7811 41.7225 17.6711L38.9325 17.3611C38.7225 17.3411 38.5225 17.2711 38.3425 17.1711C37.6625 16.7811 37.3925 15.9411 37.7025 15.2211L38.8325 12.6411C39.2425 11.7111 39.0125 10.6311 38.2625 9.94111C37.2225 8.99111 36.0825 8.14111 34.8625 7.42111H34.8425C33.5925 6.71111 32.2725 6.13111 30.9225 5.71111C29.9525 5.41111 28.9025 5.75111 28.2925 6.57111L26.6225 8.84111C26.3325 9.23111 25.8725 9.47111 25.3825 9.47111C25.3475 9.47111 25.3125 9.46611 25.2775 9.46111C25.2425 9.45611 25.2075 9.45111 25.1725 9.45111C25.5425 7.66111 25.1725 5.61111 24.1925 5.16111C24.1825 5.16111 24.1725 5.16111 24.1525 5.15111C24.1525 5.14111 24.1225 5.09111 23.8925 5.03111C23.6125 4.96111 16.6125 5.03111 16.6125 5.03111H16.1325C13.6925 5.01111 13.5325 5.01111 10.0325 10.2811C9.63857 10.929 9.26994 11.5217 8.91062 12.0995C7.75595 13.9561 6.69737 15.6582 5.20254 18.5411C3.38254 22.9511 3.73254 24.2311 5.55254 28.2711C6.5584 30.5043 7.32581 32.0307 7.80764 32.9603C7.85871 32.6323 7.92464 32.3078 8.00628 31.9792C8.31434 30.7391 8.83967 29.473 9.56024 27.8038C11.0379 24.3808 11.5066 23.5631 15.2866 17.193L15.2938 17.1809L15.3014 17.169C15.6356 16.6403 16.0025 16.0635 16.3701 15.4855L16.3708 15.4844C17.0924 14.3499 17.8171 13.2105 18.3044 12.42L18.3159 12.4271C19.4929 10.5301 20.3693 9.21256 21.1725 8.15111L22.5425 10.0111C23.2025 10.9111 24.2625 11.4511 25.3825 11.4511H25.4025C26.5225 11.4511 27.5825 10.9111 28.2425 10.0111L29.9125 7.74111C30.0125 7.61111 30.1825 7.56111 30.3325 7.60111C31.5425 7.98111 32.7325 8.50111 33.8625 9.13111C34.9525 9.78111 35.9825 10.5411 36.9125 11.4011C37.0325 11.5111 37.0725 11.6811 37.0025 11.8311L35.8725 14.4111C35.1525 16.0611 35.7825 17.9911 37.3425 18.8911C37.7625 19.1411 38.2325 19.2911 38.7225 19.3411L41.5125 19.6511C41.6725 19.6711 41.8025 19.7811 41.8325 19.9411C42.4125 22.4211 42.4225 25.0511 41.8525 27.5311V27.5411C41.8125 27.7011 41.6825 27.8111 41.5325 27.8311L38.7225 28.1411C37.6125 28.2611 36.6125 28.9211 36.0525 29.8811C35.4925 30.8511 35.4225 32.0411 35.8725 33.0711L37.0025 35.6611C37.0625 35.8111 37.0325 35.9811 36.9125 36.0811C35.0425 37.8111 32.7625 39.1211 30.3225 39.8611C30.1725 39.9111 30.0025 39.8611 29.9125 39.7211L28.2425 37.4511C27.5825 36.5511 26.5125 36.0111 25.4025 36.0111C24.2825 36.0111 23.2225 36.5511 22.5625 37.4511L21.3325 39.1311C18.7068 35.727 15.8176 30.1576 13.2658 25.2383C13.2144 25.1392 13.1631 25.0403 13.1119 24.9417C12.4767 26.1408 12.0403 27.105 11.3965 28.5964C10.667 30.2862 10.2096 31.4056 9.94728 32.4614C9.69258 33.4866 9.61567 34.4825 9.71048 35.9047V35.9047C9.73389 36.2558 9.8375 36.5972 10.0142 36.9015C10.9665 38.5422 11.7925 39.9211 11.7925 39.9211C13.1825 41.8411 13.6625 42.2311 16.0525 42.2611H23.6225C24.0325 42.2611 24.1725 42.1911 24.2425 42.1411H24.2325C24.3125 42.1111 24.3925 42.0711 24.4525 42.0111C25.2125 41.3711 25.4925 39.6611 25.2225 38.0911C25.2514 38.0911 25.2802 38.0865 25.3102 38.0817C25.3425 38.0765 25.3762 38.0711 25.4125 38.0711C25.8925 38.0711 26.3525 38.3011 26.6425 38.6911L28.3125 40.9611C28.9025 41.7711 29.9525 42.1211 30.9125 41.8311C33.6425 41.0011 36.1825 39.5411 38.2725 37.6111C39.0125 36.9211 39.2425 35.8411 38.8325 34.9211L37.7025 32.3311C37.5025 31.8811 37.5325 31.3711 37.7825 30.9511C38.0225 30.5311 38.4525 30.2511 38.9425 30.1911L41.7525 29.8811C42.7525 29.7711 43.5825 29.0311 43.8025 28.0411C44.4325 25.2611 44.4225 22.3311 43.7725 19.5511V19.4911Z" fill="black"/>
<path fill-rule="evenodd" clip-rule="evenodd" d="M28.6529 18.1112C25.5529 16.3212 21.5629 17.3912 19.7729 20.4912C17.9829 23.5912 19.0529 27.5812 22.1529 29.3712C23.1729 29.9612 24.2929 30.2412 25.3929 30.2412C27.6429 30.2412 29.8329 29.0712 31.0329 26.9912C32.8229 23.8912 31.7529 19.9012 28.6529 18.1112ZM29.3029 25.9912C28.0629 28.1412 25.3029 28.8812 23.1529 27.6412C22.1129 27.0412 21.3629 26.0712 21.0529 24.9112C20.7429 23.7512 20.9029 22.5412 21.5029 21.5012C22.3329 20.0612 23.8529 19.2512 25.4029 19.2512C26.1629 19.2512 26.9429 19.4412 27.6429 19.8512C29.7929 21.0912 30.5329 23.8512 29.2929 26.0012L29.3029 25.9912Z" fill="black"/>
</svg>
